{
  "accessors": [
    {
      "bufferView": 2,
      "componentType": 5126,
      "count": 2722,
      "max": [
        88.30000305175781,
        10.499999046325684,
        22.0
      ],
      "min": [
        -88.30000305175781,
        -10.50001335144043,
        1.0
      ],
      "type": "VEC3"
    },
    {
      "bufferView": 2,
      "byteOffset": 32664,
      "componentType": 5126,
      "count": 2722,
      "max": [
        1.0,
        1.0,
        1.1444067240518052e-06
      ],
      "min": [
        -1.0,
        -1.0,
        -1.0
      ],
      "type": "VEC3"
    },
    {
      "bufferView": 1,
      "componentType": 5126,
      "count": 2722,
      "max": [
        9.0,
        8.999994277954102
      ],
      "min": [
        0.0,
        0.0
      ],
      "type": "VEC2"
    },
    {
      "bufferView": 0,
      "componentType": 5125,
      "count": 8598,
      "type": "SCALAR"
    },
    {
      "bufferView": 2,
      "byteOffset": 65328,
      "componentType": 5126,
      "count": 7608,
      "max": [
        88.30000305175781,
        10.499999046325684,
        22.0
      ],
      "min": [
        -88.30000305175781,
        -10.50001335144043,
        1.0
      ],
      "type": "VEC3"
    },
    {
      "bufferView": 2,
      "byteOffset": 156624,
      "componentType": 5126,
      "count": 7608,
      "max": [
        1.0,
        1.0,
        1.0
      ],
      "min": [
        -1.0,
        -1.0,
        -1.0
      ],
      "type": "VEC3"
    },
    {
      "bufferView": 1,
      "byteOffset": 21776,
      "componentType": 5126,
      "count": 7608,
      "max": [
        1.001581072807312,
        1.0017648935317993
      ],
      "min": [
        0.0,
        0.08854056894779205
      ],
      "type": "VEC2"
    },
    {
      "bufferView": 0,
      "byteOffset": 34392,
      "componentType": 5125,
      "count": 11436,
      "type": "SCALAR"
    },
    {
      "bufferView": 2,
      "byteOffset": 247920,
      "componentType": 5126,
      "count": 1072,
      "max": [
        87.99999237060547,
        10.499999046325684,
        19.0
      ],
      "min": [
        -88.00000762939453,
        -10.50001335144043,
        1.0
      ],
      "type": "VEC3"
    },
    {
      "bufferView": 2,
      "byteOffset": 260784,
      "componentType": 5126,
      "count": 1072,
      "max": [
        1.0,
        1.0,
        5.052745670323412e-14
      ],
      "min": [
        -1.0,
        -1.0,
        -3.03164719890614e-13
      ],
      "type": "VEC3"
    },
    {
      "bufferView": 1,
      "byteOffset": 82640,
      "componentType": 5126,
      "count": 1072,
      "max": [
        1.0055429935455322,
        1.0
      ],
      "min": [
        -0.007936477661132813,
        -0.00986286997795105
      ],
      "type": "VEC2"
    },
    {
      "bufferView": 0,
      "byteOffset": 80136,
      "componentType": 5125,
      "count": 1608,
      "type": "SCALAR"
    },
    {
      "bufferView": 2,
      "byteOffset": 273648,
      "componentType": 5126,
      "count": 48,
      "max": [
        88.30000305175781,
        9.000006675720215,
        2.0
      ],
      "min": [
        -88.30000305175781,
        -9.000006675720215,
        0.0
      ],
      "type": "VEC3"
    },
    {
      "bufferView": 2,
      "byteOffset": 274224,
      "componentType": 5126,
      "count": 48,
      "max": [
        1.0,
        1.0,
        0.0
      ],
      "min": [
        -1.0,
        -1.0,
        -2.3752784628072732e-08
      ],
      "type": "VEC3"
    },
    {
      "bufferView": 1,
      "byteOffset": 91216,
      "componentType": 5126,
      "count": 48,
      "max": [
        44.16265869140625,
        1.0
      ],
      "min": [
        -44.03734588623047,
        -0.9993451833724976
      ],
      "type": "VEC2"
    },
    {
      "bufferView": 0,
      "byteOffset": 86568,
      "componentType": 5125,
      "count": 120,
      "type": "SCALAR"
    },
    {
      "bufferView": 2,
      "byteOffset": 274800,
      "componentType": 5126,
      "count": 3877,
      "max": [
        89.30000305175781,
        13.600005149841309,
        22.399999618530273
      ],
      "min": [
        -89.30000305175781,
        -10.000006675720215,
        0.0
      ],
      "type": "VEC3"
    },
    {
      "bufferView": 2,
      "byteOffset": 321324,
      "componentType": 5126,
      "count": 3877,
      "max": [
        1.0,
        1.0,
        1.0
      ],
      "min": [
        -1.0,
        -1.0,
        -1.0
      ],
      "type": "VEC3"
    },
    {
      "bufferView": 1,
      "byteOffset": 91600,
      "componentType": 5126,
      "count": 3877,
      "max": [
        1.0,
        1.0
      ],
      "min": [
        0.0,
        0.0
      ],
      "type": "VEC2"
    },
    {
      "bufferView": 0,
      "byteOffset": 87048,
      "componentType": 5125,
      "count": 8280,
      "type": "SCALAR"
    },
    {
      "bufferView": 2,
      "byteOffset": 367848,
      "componentType": 5126,
      "count": 78,
      "max": [
        89.30000305175781,
        13.000005722045898,
        25.399999618530273
      ],
      "min": [
        -89.30000305175781,
        -10.000006675720215,
        5.199999809265137
      ],
      "type": "VEC3"
    },
    {
      "bufferView": 2,
      "byteOffset": 368784,
      "componentType": 5126,
      "count": 78,
      "max": [
        0.2873477637767792,
        0.2873479127883911,
        1.0
      ],
      "min": [
        -0.2873477637767792,
        -0.2873479127883911,
        0.9578263163566589
      ],
      "type": "VEC3"
    },
    {
      "bufferView": 1,
      "byteOffset": 122616,
      "componentType": 5126,
      "count": 78,
      "max": [
        9.495927810668945,
        9.026961326599121
      ],
      "min": [
        -7.504069805145264,
        -0.6623594164848328
      ],
      "type": "VEC2"
    },
    {
      "bufferView": 0,
      "byteOffset": 120168,
      "componentType": 5125,
      "count": 114,
      "type": "SCALAR"
    }
  ],
  "asset": {
    "extras": {
      "author": "Unka II (https://sketchfab.com/UnkaII)",
      "license": "CC-BY-4.0 (http://creativecommons.org/licenses/by/4.0/)",
      "source": "https://sketchfab.com/3d-models/soviet-panel-house-built-in-the-1970s-94996e8cf4a8452d91ec1e206b5b4137",
      "title": "Soviet panel house built in the 1970s"
    },
    "generator": "Sketchfab-16.53.0",
    "version": "2.0"
  },
  "bufferViews": [
    {
      "buffer": 0,
      "byteLength": 120624,
      "name": "floatBufferViews",
      "target": 34963
    },
    {
      "buffer": 0,
      "byteLength": 123240,
      "byteOffset": 120624,
      "byteStride": 8,
      "name": "floatBufferViews",
      "target": 34962
    },
    {
      "buffer": 0,
      "byteLength": 369720,
      "byteOffset": 243864,
      "byteStride": 12,
      "name": "floatBufferViews",
      "target": 34962
    }
  ],
  "buffers": [
    {
      "byteLength": 613584,
      "uri": "scene.bin"
    }
  ],
  "extensionsRequired": [
    "KHR_materials_pbrSpecularGlossiness"
  ],
  "extensionsUsed": [
    "KHR_materials_pbrSpecularGlossiness"
  ],
  "images": [
    {
      "uri": "textures/Material.001_diffuse.png"
    },
    {
      "uri": "textures/Material.002_diffuse.png"
    },
    {
      "uri": "textures/Material.003_diffuse.png"
    },
    {
      "uri": "textures/material_diffuse.png"
    },
    {
      "uri": "textures/Padik_diffuse.png"
    },
    {
      "uri": "textures/roof_diffuse.png"
    }
  ],
  "materials": [
    {
      "doubleSided": true,
      "extensions": {
        "KHR_materials_pbrSpecularGlossiness": {
          "diffuseFactor": [
            1.0,
            1.0,
            1.0,
            1.0
          ],
          "diffuseTexture": {
            "index": 0
          },
          "glossinessFactor": 0.1788854381999832,
          "specularFactor": [
            0.0,
            0.0,
            0.0
          ]
        }
      },
      "name": "Material.001"
    },
    {
      "doubleSided": true,
      "extensions": {
        "KHR_materials_pbrSpecularGlossiness": {
          "diffuseFactor": [
            1.0,
            1.0,
            1.0,
            1.0
          ],
          "diffuseTexture": {
            "index": 1
          },
          "glossinessFactor": 0.0,
          "specularFactor": [
            0.10209554924357864,
            0.10209554924357864,
            0.10209554924357864
          ]
        }
      },
      "name": "Material.002"
    },
    {
      "doubleSided": true,
      "extensions": {
        "KHR_materials_pbrSpecularGlossiness": {
          "diffuseFactor": [
            1.0,
            1.0,
            1.0,
            1.0
          ],
          "diffuseTexture": {
            "index": 2
          },
          "glossinessFactor": 0.1788854381999832,
          "specularFactor": [
            0.0,
            0.0,
            0.0
          ]
        }
      },
      "name": "Material.003"
    },
    {
      "doubleSided": true,
      "extensions": {
        "KHR_materials_pbrSpecularGlossiness": {
          "diffuseFactor": [
            1.0,
            1.0,
            1.0,
            1.0
          ],
          "diffuseTexture": {
            "index": 3
          },
          "glossinessFactor": 0.1788854381999832,
          "specularFactor": [
            0.0,
            0.0,
            0.0
          ]
        }
      },
      "name": "material"
    },
    {
      "doubleSided": true,
      "extensions": {
        "KHR_materials_pbrSpecularGlossiness": {
          "diffuseFactor": [
            1.0,
            1.0,
            1.0,
            1.0
          ],
          "diffuseTexture": {
            "index": 4
          },
          "glossinessFactor": 0.1788854381999832,
          "specularFactor": [
            0.22400068266874718,
            0.22400068266874718,
            0.22400068266874718
          ]
        }
      },
      "name": "Padik"
    },
    {
      "doubleSided": true,
      "extensions": {
        "KHR_materials_pbrSpecularGlossiness": {
          "diffuseFactor": [
            1.0,
            1.0,
            1.0,
            1.0
          ],
          "diffuseTexture": {
            "index": 5
          },
          "glossinessFactor": 0.1788854381999832,
          "specularFactor": [
            0.0,
            0.0,
            0.0
          ]
        }
      },
      "name": "roof"
    }
  ],
  "meshes": [
    {
      "name": "Plane.001_Material.001_0",
      "primitives": [
        {
          "attributes": {
            "NORMAL": 1,
            "POSITION": 0,
            "TEXCOORD_0": 2
          },
          "indices": 3,
          "material": 0,
          "mode": 4
        }
      ]
    },
    {
      "name": "Plane.001_Material.002_0",
      "primitives": [
        {
          "attributes": {
            "NORMAL": 5,
            "POSITION": 4,
            "TEXCOORD_0": 6
          },
          "indices": 7,
          "material": 1,
          "mode": 4
        }
      ]
    },
    {
      "name": "Plane.001_Material.003_0",
      "primitives": [
        {
          "attributes": {
            "NORMAL": 9,
            "POSITION": 8,
            "TEXCOORD_0": 10
          },
          "indices": 11,
          "material": 2,
          "mode": 4
        }
      ]
    },
    {
      "name": "Plane.001_FD_0",
      "primitives": [
        {
          "attributes": {
            "NORMAL": 13,
            "POSITION": 12,
            "TEXCOORD_0": 14
          },
          "indices": 15,
          "material": 3,
          "mode": 4
        }
      ]
    },
    {
      "name": "Plane.001_Padik_0",
      "primitives": [
        {
          "attributes": {
            "NORMAL": 17,
            "POSITION": 16,
            "TEXCOORD_0": 18
          },
          "indices": 19,
          "material": 4,
          "mode": 4
        }
      ]
    },
    {
      "name": "Plane.001_roof_0",
      "primitives": [
        {
          "attributes": {
            "NORMAL": 21,
            "POSITION": 20,
            "TEXCOORD_0": 22
          },
          "indices": 23,
          "material": 5,
          "mode": 4
        }
      ]
    }
  ],
  "nodes": [
    {
      "children": [
        1
      ],
      "matrix": [
        1.0,
        0.0,
        0.0,
        0.0,
        0.0,
        2.220446049250313e-16,
        -1.0,
        0.0,
        0.0,
        1.0,
        2.220446049250313e-16,
        0.0,
        0.0,
        0.0,
        0.0,
        1.0
      ],
      "name": "Sketchfab_model"
    },
    {
      "children": [
        2
      ],
      "matrix": [
        0.009999999776482582,
        0.0,
        0.0,
        0.0,
        0.0,
        0.0,
        0.009999999776482582,
        0.0,
        0.0,
        -0.009999999776482582,
        0.0,
        0.0,
        0.0,
        0.0,
        0.0,
        1.0
      ],
      "name": "a62877227c0745259a76dd5362626c0c.fbx"
    },
    {
      "children": [
        3
      ],
      "name": "RootNode"
    },
    {
      "children": [
        4,
        5,
        6,
        7,
        8,
        9
      ],
      "matrix": [
        7.549789959870878e-06,
        0.0,
        99.9999999999997,
        0.0,
        99.99999999999838,
        -1.6292067961387602e-05,
        -7.549789954319763e-06,
        0.0,
        1.6292067972489832e-05,
        99.99999999999866,
        -1.2212453270876722e-12,
        0.0,
        0.0,
        0.0,
        0.0,
        1.0
      ],
      "name": "Plane.001"
    },
    {
      "mesh": 0,
      "name": "Plane.001_Material.001_0"
    },
    {
      "mesh": 1,
      "name": "Plane.001_Material.002_0"
    },
    {
      "mesh": 2,
      "name": "Plane.001_Material.003_0"
    },
    {
      "mesh": 3,
      "name": "Plane.001_FD_0"
    },
    {
      "mesh": 4,
      "name": "Plane.001_Padik_0"
    },
    {
      "mesh": 5,
      "name": "Plane.001_roof_0"
    }
  ],
  "samplers": [
    {
      "magFilter": 9729,
      "minFilter": 9987,
      "wrapS": 10497,
      "wrapT": 10497
    }
  ],
  "scene": 0,
  "scenes": [
    {
      "name": "Sketchfab_Scene",
      "nodes": [
        0
      ]
    }
  ],
  "textures": [
    {
      "sampler": 0,
      "source": 0
    },
    {
      "sampler": 0,
      "source": 1
    },
    {
      "sampler": 0,
      "source": 2
    },
    {
      "sampler": 0,
      "source": 3
    },
    {
      "sampler": 0,
      "source": 4
    },
    {
      "sampler": 0,
      "source": 5
    }
  ]
}
