{
  "accessors": [
    {
      "bufferView": 2,
      "componentType": 5126,
      "count": 2257,
      "max": [
        136.3915252685547,
        263.8876953125,
        463.0377197265625
      ],
      "min": [
        -136.3915252685547,
        0.9640742540359497,
        -349.534423828125
      ],
      "type": "VEC3"
    },
    {
      "bufferView": 2,
      "byteOffset": 27084,
      "componentType": 5126,
      "count": 2257,
      "max": [
        1.0,
        0.9995545148849487,
        1.0
      ],
      "min": [
        -1.0,
        -1.0,
        -1.0
      ],
      "type": "VEC3"
    },
    {
      "bufferView": 1,
      "componentType": 5126,
      "count": 2257,
      "max": [
        0.984636127948761,
        0.9858350157737732
      ],
      "min": [
        0.020490964874625206,
        0.016057699918746948
      ],
      "type": "VEC2"
    },
    {
      "bufferView": 1,
      "byteOffset": 18056,
      "componentType": 5126,
      "count": 2257,
      "max": [
        1.0,
        1.0
      ],
      "min": [
        0.0,
        0.0
      ],
      "type": "VEC2"
    },
    {
      "bufferView": 0,
      "componentType": 5125,
      "count": 3294,
      "type": "SCALAR"
    }
  ],
  "asset": {
    "extras": {
      "author": "cgart.com (https://sketchfab.com/goart)",
      "license": "CC-BY-4.0 (http://creativecommons.org/licenses/by/4.0/)",
      "source": "https://sketchfab.com/3d-models/green-bus-low-poly-9c662e4666c54d51a008541cb8cb1869",
      "title": "Green Bus Low Poly"
    },
    "generator": "Sketchfab-12.68.0",
    "version": "2.0"
  },
  "bufferViews": [
    {
      "buffer": 0,
      "byteLength": 13176,
      "name": "floatBufferViews",
      "target": 34963
    },
    {
      "buffer": 0,
      "byteLength": 36112,
      "byteOffset": 13176,
      "byteStride": 8,
      "name": "floatBufferViews",
      "target": 34962
    },
    {
      "buffer": 0,
      "byteLength": 54168,
      "byteOffset": 49288,
      "byteStride": 12,
      "name": "floatBufferViews",
      "target": 34962
    }
  ],
  "buffers": [
    {
      "byteLength": 103456,
      "uri": "scene.bin"
    }
  ],
  "images": [
    {
      "uri": "textures/Bus_mat_baseColor.png"
    },
    {
      "uri": "textures/Bus_mat_emissive.jpeg"
    }
  ],
  "materials": [
    {
      "doubleSided": true,
      "emissiveFactor": [
        1.0,
        1.0,
        1.0
      ],
      "emissiveTexture": {
        "index": 1
      },
      "name": "Bus_mat",
      "pbrMetallicRoughness": {
        "baseColorTexture": {
          "index": 0
        },
        "metallicFactor": 0.0,
        "roughnessFactor": 0.0
      }
    }
  ],
  "meshes": [
    {
      "name": "Bus_Bus_mat_0",
      "primitives": [
        {
          "attributes": {
            "NORMAL": 1,
            "POSITION": 0,
            "TEXCOORD_0": 2,
            "TEXCOORD_1": 3
          },
          "indices": 4,
          "material": 0,
          "mode": 4
        }
      ]
    }
  ],
  "nodes": [
    {
      "children": [
        1
      ],
      "matrix": [
        0.01207529753446579,
        0.0,
        0.0,
        0.0,
        0.0,
        2.681254670392661e-18,
        -0.01207529753446579,
        0.0,
        0.0,
        0.01207529753446579,
        2.681254670392661e-18,
        0.0,
        0.0,
        0.0,
        0.0,
        1.0
      ],
      "name": "Sketchfab_model"
    },
    {
      "children": [
        2
      ],
      "matrix": [
        1.0,
        0.0,
        0.0,
        0.0,
        0.0,
        0.0,
        1.0,
        0.0,
        0.0,
        -1.0,
        0.0,
        0.0,
        0.0,
        0.0,
        0.0,
        1.0
      ],
      "name": "5c939f963cef4f29b54dabab223155ce.fbx"
    },
    {
      "children": [
        3
      ],
      "name": "RootNode"
    },
    {
      "children": [
        4
      ],
      "name": "Bus"
    },
    {
      "mesh": 0,
      "name": "Bus_Bus_mat_0"
    }
  ],
  "samplers": [
    {
      "magFilter": 9729,
      "minFilter": 9987,
      "wrapS": 10497,
      "wrapT": 10497
    }
  ],
  "scene": 0,
  "scenes": [
    {
      "name": "Sketchfab_Scene",
      "nodes": [
        0
      ]
    }
  ],
  "textures": [
    {
      "sampler": 0,
      "source": 0
    },
    {
      "sampler": 0,
      "source": 1
    }
  ]
}
