{
  "accessors": [
    {
      "bufferView": 2,
      "componentType": 5126,
      "count": 651,
      "max": [
        1.0,
        1.1062887907028198,
        3.2187156677246094
      ],
      "min": [
        -1.0,
        -1.0,
        -2.0
      ],
      "type": "VEC3"
    },
    {
      "bufferView": 2,
      "byteOffset": 7812,
      "componentType": 5126,
      "count": 651,
      "max": [
        1.0,
        1.0,
        0.995826780796051
      ],
      "min": [
        -1.0,
        -1.0,
        -1.0
      ],
      "type": "VEC3"
    },
    {
      "bufferView": 1,
      "componentType": 5126,
      "count": 651,
      "max": [
        0.875,
        1.0
      ],
      "min": [
        0.125,
        0.0
      ],
      "type": "VEC2"
    },
    {
      "bufferView": 0,
      "componentType": 5125,
      "count": 3060,
      "type": "SCALAR"
    },
    {
      "bufferView": 2,
      "byteOffset": 15624,
      "componentType": 5126,
      "count": 103,
      "max": [
        1.0,
        -0.5168867111206055,
        2.5680973529815674
      ],
      "min": [
        -1.0,
        -1.0,
        -2.0
      ],
      "type": "VEC3"
    },
    {
      "bufferView": 2,
      "byteOffset": 16860,
      "componentType": 5126,
      "count": 103,
      "max": [
        5.116323809062351e-09,
        0.6438947319984436,
        0.7651141285896301
      ],
      "min": [
        -1.4856356145287464e-08,
        -1.0,
        -0.6770156621932983
      ],
      "type": "VEC3"
    },
    {
      "bufferView": 1,
      "byteOffset": 5208,
      "componentType": 5126,
      "count": 103,
      "max": [
        0.8635180592536926,
        0.9885179996490479
      ],
      "min": [
        0.40399661660194397,
        0.26148197054862976
      ],
      "type": "VEC2"
    },
    {
      "bufferView": 0,
      "byteOffset": 12240,
      "componentType": 5125,
      "count": 279,
      "type": "SCALAR"
    },
    {
      "bufferView": 2,
      "byteOffset": 18096,
      "componentType": 5126,
      "count": 42,
      "max": [
        1.0,
        0.0,
        1.0048954486846924
      ],
      "min": [
        -1.0,
        -0.022941043600440025,
        -1.0
      ],
      "type": "VEC3"
    },
    {
      "bufferView": 2,
      "byteOffset": 18600,
      "componentType": 5126,
      "count": 42,
      "max": [
        0.8860319256782532,
        1.0,
        0.9779804348945618
      ],
      "min": [
        -0.8860319256782532,
        -0.4636242091655731,
        -0.9779811501502991
      ],
      "type": "VEC3"
    },
    {
      "bufferView": 1,
      "byteOffset": 6032,
      "componentType": 5126,
      "count": 42,
      "max": [
        1.0,
        1.0
      ],
      "min": [
        0.0,
        0.0
      ],
      "type": "VEC2"
    },
    {
      "bufferView": 0,
      "byteOffset": 13356,
      "componentType": 5125,
      "count": 72,
      "type": "SCALAR"
    },
    {
      "bufferView": 2,
      "byteOffset": 19104,
      "componentType": 5126,
      "count": 1668,
      "max": [
        1.027462124824524,
        1.0,
        4.202296257019043
      ],
      "min": [
        -1.027462124824524,
        -1.053736925125122,
        -3.1338295936584473
      ],
      "type": "VEC3"
    },
    {
      "bufferView": 2,
      "byteOffset": 39120,
      "componentType": 5126,
      "count": 1668,
      "max": [
        1.0,
        1.0,
        0.995184600353241
      ],
      "min": [
        -1.0,
        -1.0,
        -1.0
      ],
      "type": "VEC3"
    },
    {
      "bufferView": 1,
      "byteOffset": 6368,
      "componentType": 5126,
      "count": 1668,
      "max": [
        1.0,
        1.0
      ],
      "min": [
        0.0,
        0.0
      ],
      "type": "VEC2"
    },
    {
      "bufferView": 0,
      "byteOffset": 13644,
      "componentType": 5125,
      "count": 3246,
      "type": "SCALAR"
    },
    {
      "bufferView": 2,
      "byteOffset": 59136,
      "componentType": 5126,
      "count": 54,
      "max": [
        1.0254217386245728,
        0.7500254511833191,
        4.259554862976074
      ],
      "min": [
        -1.0254217386245728,
        -0.5480270981788635,
        -2.9017632007598877
      ],
      "type": "VEC3"
    },
    {
      "bufferView": 2,
      "byteOffset": 59784,
      "componentType": 5126,
      "count": 54,
      "max": [
        0.999761700630188,
        0.1941204071044922,
        0.9809777736663818
      ],
      "min": [
        -0.999761700630188,
        -0.04848746582865715,
        -0.0
      ],
      "type": "VEC3"
    },
    {
      "bufferView": 1,
      "byteOffset": 19712,
      "componentType": 5126,
      "count": 54,
      "max": [
        0.6049076914787292,
        0.9861684441566467
      ],
      "min": [
        0.5028233528137207,
        0.0
      ],
      "type": "VEC2"
    },
    {
      "bufferView": 0,
      "byteOffset": 26628,
      "componentType": 5125,
      "count": 84,
      "type": "SCALAR"
    },
    {
      "bufferView": 2,
      "byteOffset": 60432,
      "componentType": 5126,
      "count": 240,
      "max": [
        1.027462124824524,
        0.8069441914558411,
        4.275092124938965
      ],
      "min": [
        -1.027462124824524,
        -1.0,
        -3.1338295936584473
      ],
      "type": "VEC3"
    },
    {
      "bufferView": 2,
      "byteOffset": 63312,
      "componentType": 5126,
      "count": 240,
      "max": [
        1.0,
        0.9837587475776672,
        0.9837602972984314
      ],
      "min": [
        -1.0,
        -0.9837589263916016,
        -0.17949475347995758
      ],
      "type": "VEC3"
    },
    {
      "bufferView": 1,
      "byteOffset": 20144,
      "componentType": 5126,
      "count": 240,
      "max": [
        0.6081145405769348,
        1.0
      ],
      "min": [
        0.375,
        0.0
      ],
      "type": "VEC2"
    },
    {
      "bufferView": 0,
      "byteOffset": 26964,
      "componentType": 5125,
      "count": 426,
      "type": "SCALAR"
    },
    {
      "bufferView": 2,
      "byteOffset": 66192,
      "componentType": 5126,
      "count": 8,
      "max": [
        1.0,
        -0.4267539978027344,
        3.6375460624694824
      ],
      "min": [
        -1.0,
        -0.5257849097251892,
        3.0
      ],
      "type": "VEC3"
    },
    {
      "bufferView": 2,
      "byteOffset": 66288,
      "componentType": 5126,
      "count": 8,
      "max": [
        0.9571256041526794,
        -0.033350784331560135,
        0.28774750232696533
      ],
      "min": [
        -0.9571255445480347,
        -0.03335120156407356,
        0.287747323513031
      ],
      "type": "VEC3"
    },
    {
      "bufferView": 1,
      "byteOffset": 22064,
      "componentType": 5126,
      "count": 8,
      "max": [
        0.5029042363166809,
        0.0
      ],
      "min": [
        0.5,
        0.0
      ],
      "type": "VEC2"
    },
    {
      "bufferView": 0,
      "byteOffset": 28668,
      "componentType": 5125,
      "count": 12,
      "type": "SCALAR"
    },
    {
      "bufferView": 2,
      "byteOffset": 66384,
      "componentType": 5126,
      "count": 8,
      "max": [
        0.4677583873271942,
        -0.7010162472724915,
        4.217771053314209
      ],
      "min": [
        -0.4677583873271942,
        -0.8862090706825256,
        4.183980941772461
      ],
      "type": "VEC3"
    },
    {
      "bufferView": 2,
      "byteOffset": 66480,
      "componentType": 5126,
      "count": 8,
      "max": [
        0.0,
        -0.17949609458446503,
        0.9837587475776672
      ],
      "min": [
        0.0,
        -0.17949679493904114,
        0.9837586283683777
      ],
      "type": "VEC3"
    },
    {
      "bufferView": 1,
      "byteOffset": 22128,
      "componentType": 5126,
      "count": 8,
      "max": [
        0.4665107727050781,
        0.975887656211853
      ],
      "min": [
        0.4084892272949219,
        0.8985400795936584
      ],
      "type": "VEC2"
    },
    {
      "bufferView": 0,
      "byteOffset": 28716,
      "componentType": 5125,
      "count": 12,
      "type": "SCALAR"
    },
    {
      "bufferView": 2,
      "byteOffset": 66576,
      "componentType": 5126,
      "count": 182,
      "max": [
        1.0261420011520386,
        0.746496319770813,
        4.275092124938965
      ],
      "min": [
        -1.0261420011520386,
        -0.6010258197784424,
        -2.9458956718444824
      ],
      "type": "VEC3"
    },
    {
      "bufferView": 2,
      "byteOffset": 68760,
      "componentType": 5126,
      "count": 182,
      "max": [
        0.999761700630188,
        0.1941198706626892,
        0.9809785485267639
      ],
      "min": [
        -0.999761700630188,
        -0.05680771544575691,
        -4.046528374601621e-06
      ],
      "type": "VEC3"
    },
    {
      "bufferView": 1,
      "byteOffset": 22192,
      "componentType": 5126,
      "count": 182,
      "max": [
        0.60811448097229,
        1.0
      ],
      "min": [
        0.5,
        0.0
      ],
      "type": "VEC2"
    },
    {
      "bufferView": 0,
      "byteOffset": 28764,
      "componentType": 5125,
      "count": 276,
      "type": "SCALAR"
    },
    {
      "bufferView": 2,
      "byteOffset": 70944,
      "componentType": 5126,
      "count": 40,
      "max": [
        1.0,
        1.6263896226882935,
        1.0
      ],
      "min": [
        -1.0,
        -1.0,
        -1.0
      ],
      "type": "VEC3"
    },
    {
      "bufferView": 2,
      "byteOffset": 71424,
      "componentType": 5126,
      "count": 40,
      "max": [
        1.0,
        1.0,
        1.0
      ],
      "min": [
        -1.0,
        -1.0,
        -1.0
      ],
      "type": "VEC3"
    },
    {
      "bufferView": 1,
      "byteOffset": 23648,
      "componentType": 5126,
      "count": 40,
      "max": [
        0.875,
        1.0
      ],
      "min": [
        0.125,
        0.0
      ],
      "type": "VEC2"
    },
    {
      "bufferView": 0,
      "byteOffset": 29868,
      "componentType": 5125,
      "count": 60,
      "type": "SCALAR"
    },
    {
      "bufferView": 2,
      "byteOffset": 71904,
      "componentType": 5126,
      "count": 40,
      "max": [
        1.0,
        1.4216034412384033,
        1.0
      ],
      "min": [
        -1.0,
        -1.0,
        -1.0
      ],
      "type": "VEC3"
    },
    {
      "bufferView": 2,
      "byteOffset": 72384,
      "componentType": 5126,
      "count": 40,
      "max": [
        1.0,
        1.0,
        1.0
      ],
      "min": [
        -1.0,
        -1.0,
        -1.0
      ],
      "type": "VEC3"
    },
    {
      "bufferView": 1,
      "byteOffset": 23968,
      "componentType": 5126,
      "count": 40,
      "max": [
        0.875,
        1.0
      ],
      "min": [
        0.125,
        0.0
      ],
      "type": "VEC2"
    },
    {
      "bufferView": 0,
      "byteOffset": 30108,
      "componentType": 5125,
      "count": 60,
      "type": "SCALAR"
    },
    {
      "bufferView": 2,
      "byteOffset": 72864,
      "componentType": 5126,
      "count": 40,
      "max": [
        1.0,
        1.6263896226882935,
        1.0
      ],
      "min": [
        -1.0,
        -1.0,
        -1.0
      ],
      "type": "VEC3"
    },
    {
      "bufferView": 2,
      "byteOffset": 73344,
      "componentType": 5126,
      "count": 40,
      "max": [
        1.0,
        1.0,
        1.0
      ],
      "min": [
        -1.0,
        -1.0,
        -1.0
      ],
      "type": "VEC3"
    },
    {
      "bufferView": 1,
      "byteOffset": 24288,
      "componentType": 5126,
      "count": 40,
      "max": [
        0.875,
        1.0
      ],
      "min": [
        0.125,
        0.0
      ],
      "type": "VEC2"
    },
    {
      "bufferView": 0,
      "byteOffset": 30348,
      "componentType": 5125,
      "count": 60,
      "type": "SCALAR"
    },
    {
      "bufferView": 3,
      "componentType": 5126,
      "count": 241,
      "max": [
        10.416666984558105
      ],
      "min": [
        0.0416666679084301
      ],
      "type": "SCALAR"
    },
    {
      "bufferView": 4,
      "componentType": 5126,
      "count": 241,
      "max": [
        0.0,
        0.0,
        11.657045364379883
      ],
      "min": [
        0.0,
        0.0,
        -9.664406776428223
      ],
      "type": "VEC3"
    },
    {
      "bufferView": 3,
      "byteOffset": 964,
      "componentType": 5126,
      "count": 240,
      "max": [
        10.0
      ],
      "min": [
        0.0416666679084301
      ],
      "type": "SCALAR"
    },
    {
      "bufferView": 4,
      "byteOffset": 2892,
      "componentType": 5126,
      "count": 240,
      "max": [
        0.0,
        0.0,
        11.657045364379883
      ],
      "min": [
        0.0,
        0.0,
        -9.664406776428223
      ],
      "type": "VEC3"
    }
  ],
  "animations": [
    {
      "channels": [
        {
          "sampler": 0,
          "target": {
            "node": 8,
            "path": "translation"
          }
        }
      ],
      "name": "Action",
      "samplers": [
        {
          "input": 48,
          "interpolation": "LINEAR",
          "output": 49
        }
      ]
    },
    {
      "channels": [
        {
          "sampler": 0,
          "target": {
            "node": 8,
            "path": "translation"
          }
        }
      ],
      "name": "ModernTrainAction",
      "samplers": [
        {
          "input": 50,
          "interpolation": "LINEAR",
          "output": 51
        }
      ]
    }
  ],
  "asset": {
    "extras": {
      "author": "Cybersoul (https://sketchfab.com/saiyedfahzain191)",
      "license": "CC-BY-4.0 (http://creativecommons.org/licenses/by/4.0/)",
      "source": "https://sketchfab.com/3d-models/modern-bus-lowpoly-5cbf8a3c7e944d24b3e0580975efbd87",
      "title": "Modern Bus Lowpoly"
    },
    "generator": "Sketchfab-15.30.0",
    "version": "2.0"
  },
  "bufferViews": [
    {
      "buffer": 0,
      "byteLength": 30588,
      "name": "floatBufferViews",
      "target": 34963
    },
    {
      "buffer": 0,
      "byteLength": 24608,
      "byteOffset": 30588,
      "byteStride": 8,
      "name": "floatBufferViews",
      "target": 34962
    },
    {
      "buffer": 0,
      "byteLength": 73824,
      "byteOffset": 55196,
      "byteStride": 12,
      "name": "floatBufferViews",
      "target": 34962
    },
    {
      "buffer": 0,
      "byteLength": 1924,
      "byteOffset": 129020,
      "name": "floatBufferViews"
    },
    {
      "buffer": 0,
      "byteLength": 5772,
      "byteOffset": 130944,
      "byteStride": 12,
      "name": "floatBufferViews"
    }
  ],
  "buffers": [
    {
      "byteLength": 136716,
      "uri": "scene.bin"
    }
  ],
  "materials": [
    {
      "doubleSided": true,
      "name": "material_0",
      "pbrMetallicRoughness": {
        "metallicFactor": 0.0,
        "roughnessFactor": 0.6
      }
    },
    {
      "doubleSided": true,
      "name": "Material",
      "pbrMetallicRoughness": {
        "baseColorFactor": [
          1.0,
          0.99764,
          0.213306,
          1.0
        ],
        "metallicFactor": 0.0
      }
    },
    {
      "doubleSided": true,
      "name": "Material.008",
      "pbrMetallicRoughness": {
        "baseColorFactor": [
          0.211508,
          0.8,
          0.106332,
          1.0
        ],
        "metallicFactor": 0.0,
        "roughnessFactor": 0.5
      }
    },
    {
      "doubleSided": true,
      "name": "Material.002",
      "pbrMetallicRoughness": {
        "baseColorFactor": [
          1.0,
          0.936615,
          0.879295,
          1.0
        ],
        "metallicFactor": 0.0
      }
    },
    {
      "doubleSided": true,
      "name": "Material.001",
      "pbrMetallicRoughness": {
        "baseColorFactor": [
          0.13197,
          0.11609,
          0.133602,
          1.0
        ],
        "metallicFactor": 0.0642202,
        "roughnessFactor": 0.0
      }
    },
    {
      "doubleSided": true,
      "name": "Material.003",
      "pbrMetallicRoughness": {
        "baseColorFactor": [
          0.0864998,
          0.745404,
          0.0781876,
          1.0
        ],
        "metallicFactor": 0.0
      }
    },
    {
      "doubleSided": true,
      "name": "Material.004",
      "pbrMetallicRoughness": {
        "baseColorFactor": [
          0.0864998,
          0.745404,
          0.0781876,
          1.0
        ],
        "metallicFactor": 0.0,
        "roughnessFactor": 0.5
      }
    },
    {
      "doubleSided": true,
      "emissiveFactor": [
        0.992428,
        1.0,
        0.396272
      ],
      "name": "Material.005",
      "pbrMetallicRoughness": {
        "baseColorFactor": [
          0.8,
          0.8,
          0.8,
          1.0
        ],
        "metallicFactor": 0.0,
        "roughnessFactor": 0.5
      }
    },
    {
      "doubleSided": true,
      "name": "Material.006",
      "pbrMetallicRoughness": {
        "baseColorFactor": [
          0.0,
          0.0,
          0.0,
          1.0
        ],
        "metallicFactor": 0.0,
        "roughnessFactor": 0.5
      }
    },
    {
      "doubleSided": true,
      "name": "Material.007",
      "pbrMetallicRoughness": {
        "baseColorFactor": [
          0.0558177,
          0.0558177,
          0.0558177,
          1.0
        ],
        "metallicFactor": 0.0,
        "roughnessFactor": 0.5
      }
    }
  ],
  "meshes": [
    {
      "name": "Object_0",
      "primitives": [
        {
          "attributes": {
            "NORMAL": 1,
            "POSITION": 0,
            "TEXCOORD_0": 2
          },
          "indices": 3,
          "material": 1,
          "mode": 4
        }
      ]
    },
    {
      "name": "Object_1",
      "primitives": [
        {
          "attributes": {
            "NORMAL": 5,
            "POSITION": 4,
            "TEXCOORD_0": 6
          },
          "indices": 7,
          "material": 0,
          "mode": 4
        }
      ]
    },
    {
      "name": "Object_2",
      "primitives": [
        {
          "attributes": {
            "NORMAL": 9,
            "POSITION": 8,
            "TEXCOORD_0": 10
          },
          "indices": 11,
          "material": 2,
          "mode": 4
        }
      ]
    },
    {
      "name": "Object_3",
      "primitives": [
        {
          "attributes": {
            "NORMAL": 13,
            "POSITION": 12,
            "TEXCOORD_0": 14
          },
          "indices": 15,
          "material": 3,
          "mode": 4
        }
      ]
    },
    {
      "name": "Object_4",
      "primitives": [
        {
          "attributes": {
            "NORMAL": 17,
            "POSITION": 16,
            "TEXCOORD_0": 18
          },
          "indices": 19,
          "material": 4,
          "mode": 4
        }
      ]
    },
    {
      "name": "Object_5",
      "primitives": [
        {
          "attributes": {
            "NORMAL": 21,
            "POSITION": 20,
            "TEXCOORD_0": 22
          },
          "indices": 23,
          "material": 5,
          "mode": 4
        }
      ]
    },
    {
      "name": "Object_6",
      "primitives": [
        {
          "attributes": {
            "NORMAL": 25,
            "POSITION": 24,
            "TEXCOORD_0": 26
          },
          "indices": 27,
          "material": 6,
          "mode": 4
        }
      ]
    },
    {
      "name": "Object_7",
      "primitives": [
        {
          "attributes": {
            "NORMAL": 29,
            "POSITION": 28,
            "TEXCOORD_0": 30
          },
          "indices": 31,
          "material": 7,
          "mode": 4
        }
      ]
    },
    {
      "name": "Object_8",
      "primitives": [
        {
          "attributes": {
            "NORMAL": 33,
            "POSITION": 32,
            "TEXCOORD_0": 34
          },
          "indices": 35,
          "material": 8,
          "mode": 4
        }
      ]
    },
    {
      "name": "Object_9",
      "primitives": [
        {
          "attributes": {
            "NORMAL": 37,
            "POSITION": 36,
            "TEXCOORD_0": 38
          },
          "indices": 39,
          "material": 9,
          "mode": 4
        }
      ]
    },
    {
      "name": "Object_10",
      "primitives": [
        {
          "attributes": {
            "NORMAL": 41,
            "POSITION": 40,
            "TEXCOORD_0": 42
          },
          "indices": 43,
          "material": 9,
          "mode": 4
        }
      ]
    },
    {
      "name": "Object_11",
      "primitives": [
        {
          "attributes": {
            "NORMAL": 45,
            "POSITION": 44,
            "TEXCOORD_0": 46
          },
          "indices": 47,
          "material": 9,
          "mode": 4
        }
      ]
    }
  ],
  "nodes": [
    {
      "children": [
        1
      ],
      "matrix": [
        1.0,
        0.0,
        0.0,
        0.0,
        0.0,
        2.220446049250313e-16,
        -1.0,
        0.0,
        0.0,
        1.0,
        2.220446049250313e-16,
        0.0,
        0.0,
        0.0,
        0.0,
        1.0
      ],
      "name": "Sketchfab_model"
    },
    {
      "children": [
        2
      ],
      "name": "root"
    },
    {
      "children": [
        3,
        6,
        8
      ],
      "matrix": [
        1.0,
        0.0,
        0.0,
        0.0,
        0.0,
        2.220446049250313e-16,
        1.0,
        0.0,
        0.0,
        -1.0,
        2.220446049250313e-16,
        0.0,
        0.0,
        0.0,
        0.0,
        1.0
      ],
      "name": "GLTF_SceneRootNode"
    },
    {
      "children": [
        4,
        5
      ],
      "matrix": [
        1.0,
        0.0,
        0.0,
        0.0,
        0.0,
        1.0,
        0.0,
        0.0,
        0.0,
        0.0,
        1.0,
        0.0,
        13.332868576049805,
        0.0,
        0.0,
        1.0
      ],
      "name": "OldTrain_0"
    },
    {
      "mesh": 0,
      "name": "Object_4"
    },
    {
      "mesh": 1,
      "name": "Object_5"
    },
    {
      "children": [
        7
      ],
      "matrix": [
        10.0,
        0.0,
        0.0,
        0.0,
        0.0,
        10.0,
        0.0,
        0.0,
        0.0,
        0.0,
        10.0,
        0.0,
        -1.8970952033996582,
        -0.9627254605293274,
        0.0,
        1.0
      ],
      "name": "Plane_3"
    },
    {
      "mesh": 2,
      "name": "Object_7"
    },
    {
      "children": [
        9,
        10,
        11,
        12,
        13,
        14,
        15,
        17,
        19
      ],
      "name": "ModernTrain_7",
      "scale": [
        0.9624208211898804,
        0.9624208211898804,
        0.9624208211898804
      ],
      "translation": [
        0.0,
        0.0,
        -9.664406776428223
      ]
    },
    {
      "mesh": 3,
      "name": "Object_9"
    },
    {
      "mesh": 4,
      "name": "Object_10"
    },
    {
      "mesh": 5,
      "name": "Object_11"
    },
    {
      "mesh": 6,
      "name": "Object_12"
    },
    {
      "mesh": 7,
      "name": "Object_13"
    },
    {
      "mesh": 8,
      "name": "Object_14"
    },
    {
      "children": [
        16
      ],
      "matrix": [
        0.9410881996154785,
        0.0,
        0.0,
        0.0,
        0.0,
        0.1185641661286354,
        0.0,
        0.0,
        0.0,
        0.0,
        0.46692460775375366,
        0.0,
        0.0,
        0.9247987866401672,
        0.5284565091133118,
        1.0
      ],
      "name": "Cube_4"
    },
    {
      "mesh": 9,
      "name": "Object_16"
    },
    {
      "children": [
        18
      ],
      "matrix": [
        0.9410881996154785,
        0.0,
        0.0,
        0.0,
        0.0,
        0.1185641661286354,
        0.0,
        0.0,
        0.0,
        0.0,
        0.9459666609764099,
        0.0,
        0.0,
        0.9247987866401672,
        -0.9404810070991516,
        1.0
      ],
      "name": "Cube.001_5"
    },
    {
      "mesh": 10,
      "name": "Object_18"
    },
    {
      "children": [
        20
      ],
      "matrix": [
        0.9410881996154785,
        0.0,
        0.0,
        0.0,
        0.0,
        0.1185641661286354,
        0.0,
        0.0,
        0.0,
        0.0,
        0.46692460775375366,
        0.0,
        0.0,
        0.9247987866401672,
        -2.4076738357543945,
        1.0
      ],
      "name": "Cube.002_6"
    },
    {
      "mesh": 11,
      "name": "Object_20"
    }
  ],
  "scene": 0,
  "scenes": [
    {
      "name": "Sketchfab_Scene",
      "nodes": [
        0
      ]
    }
  ]
}
